<?xml version="1.0" encoding="UTF-8" standalone="no"?>
<svg
   xmlns:dc="http://purl.org/dc/elements/1.1/"
   xmlns:cc="http://creativecommons.org/ns#"
   xmlns:rdf="http://www.w3.org/1999/02/22-rdf-syntax-ns#"
   xmlns:svg="http://www.w3.org/2000/svg"
   xmlns="http://www.w3.org/2000/svg"
   xmlns:xlink="http://www.w3.org/1999/xlink"
   xmlns:sodipodi="http://sodipodi.sourceforge.net/DTD/sodipodi-0.dtd"
   xmlns:inkscape="http://www.inkscape.org/namespaces/inkscape"
   width="24"
   viewBox="0 0 6.7733335 6.7733335"
   height="24"
   id="svg2"
   version="1.1"
   inkscape:version="0.91 r"
   sodipodi:docname="hostsblock-dark.svg">
  <metadata
     id="metadata22">
    <rdf:RDF>
      <cc:Work
         rdf:about="">
        <dc:format>image/svg+xml</dc:format>
        <dc:type
           rdf:resource="http://purl.org/dc/dcmitype/StillImage" />
        <dc:title></dc:title>
      </cc:Work>
    </rdf:RDF>
  </metadata>
  <sodipodi:namedview
     pagecolor="#ffffff"
     bordercolor="#666666"
     borderopacity="1"
     objecttolerance="10"
     gridtolerance="10"
     guidetolerance="10"
     inkscape:pageopacity="0"
     inkscape:pageshadow="2"
     inkscape:window-width="1313"
     inkscape:window-height="744"
     id="namedview20"
     showgrid="true"
     inkscape:zoom="4.6067607"
     inkscape:cx="4.5917393"
     inkscape:cy="44.787056"
     inkscape:window-x="53"
     inkscape:window-y="24"
     inkscape:window-maximized="1"
     inkscape:current-layer="svg2"
     fit-margin-top="3"
     fit-margin-left="3"
     fit-margin-right="3"
     fit-margin-bottom="3"
     inkscape:showpageshadow="false">
    <inkscape:grid
       type="xygrid"
       id="grid2999"
       empspacing="5"
       visible="true"
       enabled="true"
       snapvisiblegridlinesonly="true"
       originx="-2.3048149"
       originy="-2.3048145" />
  </sodipodi:namedview>
  <defs
     id="defs4">
    <linearGradient
       id="linearGradient10016">
      <stop
         offset="0"
         style="stop-color:#F7F7F7;stop-opacity:1"
         id="stop10018" />
      <stop
         offset="1"
         style="stop-color:#D9D9D9;stop-opacity:1"
         id="stop10020" />
    </linearGradient>
    <linearGradient
       inkscape:collect="always"
       xlink:href="#linearGradient10016"
       id="linearGradient4246"
       x1="2.2576635"
       y1="6.4911041"
       x2="11.289004"
       y2="6.4911041"
       gradientUnits="userSpaceOnUse"
       gradientTransform="matrix(0.67826452,0,0,0.65712164,-1.2675629,-1.0609124)" />
  </defs>
  <path
     style="fill:url(#linearGradient4246);fill-opacity:1"
     d="m 4.5423734,0.53392232 1.7321394,1.67814438 0,2.3620073 -1.7321393,1.6719865 -2.4380047,0 -1.72578307,-1.6719866 0,-2.3620072 1.72578307,-1.67814445 2.4380047,0 z m -0.1592683,0.38068871 -2.11872,0 -1.49286214,1.45175947 0,2.0526751 1.49286214,1.4463269 2.11872,0 1.4984699,-1.4463269 0,-2.052675 L 4.3831052,0.91461103 Z M 3.5445152,1.7209023 c 0.042178,-0.0011 0.082609,0.00811 0.111787,0.028615 0.016998,0.011948 0.04407,0.046958 0.060193,0.077876 l 0.029536,0.056506 0,0.7349353 c 0,0.5608106 0.00336,0.7381526 0.014207,0.7486994 0.037815,0.03676 0.055381,-0.1422442 0.074026,-0.7566682 0.015601,-0.5140702 0.025455,-0.6356817 0.055333,-0.6744454 0.082672,-0.1072465 0.2324841,-0.1046699 0.290123,0.00507 0.022267,0.042403 0.023808,0.075765 0.031405,0.6976273 0.00441,0.3615364 0.013719,0.6864623 0.020562,0.7273286 0.00682,0.040617 0.01221,0.078482 0.012337,0.084396 1.492e-4,0.00681 0.00441,0.00681 0.011216,0 0.014115,-0.014141 0.031617,-0.1762503 0.047481,-0.4368321 0.021623,-0.3550788 0.03627,-0.4914552 0.056455,-0.5248501 0.010276,-0.016999 0.040169,-0.039181 0.066175,-0.049261 0.066651,-0.025839 0.1271546,-0.00576 0.1693631,0.056144 0.030822,0.045205 0.030833,0.045526 0.030283,0.2731105 -0.00125,0.5141835 -0.030145,1.4778579 -0.047481,1.5850536 -0.016198,0.1001601 -0.055053,0.2276605 -0.086365,0.2984676 -0.1245556,0.2090116 -0.1262,0.2058457 -0.3248927,0.4064057 l -0.5660388,0 -0.6075385,0 -0.039631,-0.047812 C 2.8854608,4.9297074 2.8130513,4.854898 2.6423674,4.689983 2.4575437,4.5114052 2.4741495,4.5381003 2.3070062,4.1560773 2.1583692,3.8163534 2.0280994,3.4952 2.0280994,3.4689545 c 0,-0.059135 0.1858195,-0.083585 0.3144246,-0.041292 0.1096008,0.03604 0.16945,0.1134008 0.211984,0.2745593 0.02626,0.099487 0.046088,0.1229955 0.1151518,0.1351063 0,0 0.079045,0.017374 0.082999,-0.1792967 l 0.0071,-0.069183 c 0.00921,-0.092495 0.02637,-0.3969234 0.048603,-0.858813 0.035473,-0.7370052 0.036034,-0.7438251 0.05795,-0.7762278 0.073791,-0.1091052 0.2610213,-0.1065384 0.3282577,0.00435 0.022905,0.037768 0.02395,0.06317 0.031031,0.6306172 0.00682,0.5461665 0.012193,0.6823112 0.02991,0.7711568 0.031653,0.1587304 0.074026,-0.4869929 0.074026,-1.1254037 0,-0.3884389 0.00238,-0.4034549 0.066175,-0.4600137 0.037799,-0.033513 0.094573,-0.052228 0.1488003,-0.053608 z"
     id="path16"
     inkscape:connector-curvature="0" />
</svg>
